<?xml version="1.0" encoding="UTF-8" standalone="no"?>
<!-- Generator: Adobe Illustrator 17.1.0, SVG Export Plug-In . SVG Version: 6.00 Build 0)  -->

<svg
   xmlns:dc="http://purl.org/dc/elements/1.1/"
   xmlns:cc="http://creativecommons.org/ns#"
   xmlns:rdf="http://www.w3.org/1999/02/22-rdf-syntax-ns#"
   xmlns:svg="http://www.w3.org/2000/svg"
   xmlns="http://www.w3.org/2000/svg"
   xmlns:sodipodi="http://sodipodi.sourceforge.net/DTD/sodipodi-0.dtd"
   xmlns:inkscape="http://www.inkscape.org/namespaces/inkscape"
   version="1.1"
   id="Capa_1"
   x="0px"
   y="0px"
   viewBox="0 0 195.491 195.491"
   style="enable-background:new 0 0 195.491 195.491;"
   xml:space="preserve"
   sodipodi:docname="autopilot-toggled.svg"
   inkscape:version="0.92.3 (2405546, 2018-03-11)"><metadata
   id="metadata39"><rdf:RDF><cc:Work
       rdf:about=""><dc:format>image/svg+xml</dc:format><dc:type
         rdf:resource="http://purl.org/dc/dcmitype/StillImage" /><dc:title></dc:title></cc:Work></rdf:RDF></metadata><defs
   id="defs37" /><sodipodi:namedview
   pagecolor="#ffffff"
   bordercolor="#666666"
   borderopacity="1"
   objecttolerance="10"
   gridtolerance="10"
   guidetolerance="10"
   inkscape:pageopacity="1"
   inkscape:pageshadow="2"
   inkscape:window-width="1299"
   inkscape:window-height="713"
   id="namedview35"
   showgrid="false"
   inkscape:zoom="1.2072167"
   inkscape:cx="48.883191"
   inkscape:cy="97.745497"
   inkscape:window-x="67"
   inkscape:window-y="27"
   inkscape:window-maximized="1"
   inkscape:current-layer="Capa_1"
   inkscape:pagecheckerboard="false" />
<rect
   style="fill:#282828;fill-opacity:1;stroke:#000000;stroke-width:2.88199997;stroke-miterlimit:4;stroke-dasharray:none;stroke-opacity:1"
   id="rect827"
   width="200.46111"
   height="196.31935"
   x="-1.6567034"
   y="-0.82835168" /><path
   d="M97.745,195.491c-1.381,0-2.5-1.119-2.5-2.5v-20.036c-18.96-0.621-36.163-8.289-49.078-20.464l-14.371,14.371  c-0.977,0.977-2.559,0.977-3.535,0c-0.977-0.976-0.977-2.559,0-3.535l14.383-14.384c-11.968-12.872-19.492-29.924-20.107-48.697H2.5  c-1.381,0-2.5-1.119-2.5-2.5s1.119-2.5,2.5-2.5h20.036c0.615-18.773,8.14-35.826,20.107-48.698L28.261,32.164  c-0.977-0.976-0.977-2.559,0-3.535c0.977-0.977,2.559-0.977,3.535,0L46.167,43c12.915-12.176,30.118-19.843,49.078-20.464V2.5  c0-1.381,1.119-2.5,2.5-2.5s2.5,1.119,2.5,2.5v20.037c18.909,0.62,36.074,8.25,48.978,20.37L163.5,28.629  c0.977-0.977,2.559-0.977,3.535,0c0.977,0.976,0.977,2.559,0,3.535l-14.282,14.283c12.021,12.883,19.584,29.977,20.201,48.798  h20.036c1.381,0,2.5,1.119,2.5,2.5s-1.119,2.5-2.5,2.5h-20.036c-0.617,18.821-8.18,35.915-20.201,48.798l14.282,14.283  c0.977,0.976,0.977,2.559,0,3.535c-0.977,0.977-2.559,0.977-3.535,0l-14.277-14.277c-12.903,12.119-30.068,19.75-48.978,20.37  v20.036C100.245,194.372,99.126,195.491,97.745,195.491z M97.745,27.496c-38.736,0-70.25,31.514-70.25,70.25  s31.514,70.25,70.25,70.25s70.25-31.514,70.25-70.25S136.482,27.496,97.745,27.496z M97.745,158.496  c-16.609,0-31.684-6.7-42.661-17.54c-0.104-0.075-0.203-0.16-0.296-0.253c-0.094-0.093-0.178-0.192-0.254-0.296  c-10.84-10.978-17.539-26.051-17.539-42.661s6.699-31.683,17.539-42.661c0.076-0.104,0.16-0.203,0.254-0.296  c0.094-0.094,0.192-0.178,0.296-0.254c10.978-10.84,26.052-17.54,42.661-17.54c16.612,0,31.686,6.7,42.664,17.542  c0.103,0.075,0.2,0.159,0.292,0.251c0.093,0.092,0.176,0.19,0.251,0.292c10.842,10.978,17.543,26.053,17.543,42.665  s-6.701,31.687-17.543,42.665c-0.075,0.102-0.158,0.2-0.251,0.292c-0.092,0.093-0.189,0.176-0.292,0.251  C129.431,151.795,114.358,158.496,97.745,158.496z M100.245,120.611v32.83c13.492-0.598,25.749-6.012,35.096-14.563l-23.203-23.204  C108.807,118.353,104.716,120.125,100.245,120.611z M60.15,138.876c9.347,8.551,21.604,13.966,35.096,14.564v-32.83  c-4.471-0.485-8.562-2.258-11.893-4.938L60.15,138.876z M115.674,112.138l23.202,23.204c8.552-9.347,13.966-21.604,14.563-35.096  h-32.829C120.125,104.717,118.353,108.807,115.674,112.138z M42.051,100.246c0.598,13.492,6.012,25.749,14.563,35.095l23.203-23.203  c-2.679-3.331-4.451-7.421-4.937-11.892H42.051z M97.745,79.746c-9.925,0-18,8.075-18,18s8.075,18,18,18s18-8.075,18-18  S107.67,79.746,97.745,79.746z M120.611,95.246h32.829c-0.598-13.492-6.012-25.749-14.563-35.096l-23.203,23.203  C118.353,86.684,120.125,90.774,120.611,95.246z M42.051,95.246H74.88c0.485-4.471,2.258-8.562,4.938-11.893L56.614,60.15  C48.063,69.497,42.649,81.754,42.051,95.246z M60.15,56.615l23.203,23.203c3.331-2.679,7.422-4.452,11.893-4.937v-32.83  C81.753,42.648,69.496,48.063,60.15,56.615z M100.245,74.88c4.471,0.485,8.562,2.258,11.893,4.937l23.203-23.203  c-9.347-8.551-21.604-13.966-35.096-14.563V74.88z"
   id="path2"
   style="fill:#b4b4b4;fill-opacity:1" />
<g
   id="g4">
</g>
<g
   id="g6">
</g>
<g
   id="g8">
</g>
<g
   id="g10">
</g>
<g
   id="g12">
</g>
<g
   id="g14">
</g>
<g
   id="g16">
</g>
<g
   id="g18">
</g>
<g
   id="g20">
</g>
<g
   id="g22">
</g>
<g
   id="g24">
</g>
<g
   id="g26">
</g>
<g
   id="g28">
</g>
<g
   id="g30">
</g>
<g
   id="g32">
</g>
</svg>