<?xml version="1.0" encoding="UTF-8" standalone="no"?>
<!-- Generator: Adobe Illustrator 17.1.0, SVG Export Plug-In . SVG Version: 6.00 Build 0)  -->

<svg
   xmlns:dc="http://purl.org/dc/elements/1.1/"
   xmlns:cc="http://creativecommons.org/ns#"
   xmlns:rdf="http://www.w3.org/1999/02/22-rdf-syntax-ns#"
   xmlns:svg="http://www.w3.org/2000/svg"
   xmlns="http://www.w3.org/2000/svg"
   xmlns:sodipodi="http://sodipodi.sourceforge.net/DTD/sodipodi-0.dtd"
   xmlns:inkscape="http://www.inkscape.org/namespaces/inkscape"
   version="1.1"
   id="Capa_1"
   x="0px"
   y="0px"
   viewBox="0 0 195.491 195.491"
   style="enable-background:new 0 0 195.491 195.491;"
   xml:space="preserve"
   sodipodi:docname="autopilot-rollover.svg"
   inkscape:version="0.92.3 (2405546, 2018-03-11)"><metadata
   id="metadata39"><rdf:RDF><cc:Work
       rdf:about=""><dc:format>image/svg+xml</dc:format><dc:type
         rdf:resource="http://purl.org/dc/dcmitype/StillImage" /><dc:title /></cc:Work></rdf:RDF></metadata><defs
   id="defs37">
</defs><sodipodi:namedview
   pagecolor="#ffffff"
   bordercolor="#666666"
   borderopacity="1"
   objecttolerance="10"
   gridtolerance="10"
   guidetolerance="10"
   inkscape:pageopacity="1"
   inkscape:pageshadow="2"
   inkscape:window-width="1299"
   inkscape:window-height="713"
   id="namedview35"
   showgrid="false"
   inkscape:zoom="1.2072167"
   inkscape:cx="122.64325"
   inkscape:cy="194.58743"
   inkscape:window-x="67"
   inkscape:window-y="27"
   inkscape:window-maximized="1"
   inkscape:current-layer="Capa_1"
   inkscape:pagecheckerboard="false" />

<g
   id="g4">
</g>
<g
   id="g6">
</g>
<g
   id="g8">
</g>
<g
   id="g10">
</g>
<g
   id="g12">
</g>
<g
   id="g14">
</g>
<g
   id="g16">
</g>

<g
   id="g20">
</g>
<g
   id="g22">
</g>
<g
   id="g24">
</g>
<g
   id="g26">
</g>
<g
   id="g28">
</g>
<g
   id="g30">
</g>
<g
   id="g32">
</g>
<rect
   style="fill:#898989;fill-opacity:1;stroke:#0a0a0a;stroke-width:0.57273692;stroke-miterlimit:4;stroke-dasharray:none;stroke-opacity:1"
   id="rect841"
   width="194.23016"
   height="205.78769"
   x="2.7013302"
   y="-1.0065784" /><path
   d="m 98.57335,197.97606 c -1.381,0 -2.5,-1.119 -2.5,-2.5 v -20.036 c -18.96,-0.621 -36.163,-8.289 -49.078,-20.464 l -14.371,14.371 c -0.977,0.977 -2.559,0.977 -3.535,0 -0.977,-0.976 -0.977,-2.559 0,-3.535 l 14.383,-14.384 c -11.968,-12.872 -19.492,-29.924 -20.107,-48.697 H 3.3283501 c -1.381,0 -2.49999997,-1.119 -2.49999997,-2.5 0,-1.381005 1.11899997,-2.500005 2.49999997,-2.500005 H 23.36435 c 0.615,-18.773 8.14,-35.826 20.107,-48.698 l -14.382,-14.384 c -0.977,-0.976 -0.977,-2.559 0,-3.535 0.977,-0.977 2.559,-0.977 3.535,0 l 14.371,14.371 c 12.915,-12.176 30.118,-19.843 49.078,-20.464 V 4.9850554 c 0,-1.381 1.119,-2.5 2.5,-2.5 1.381,0 2.5,1.119 2.5,2.5 V 25.022055 c 18.909,0.62 36.074,8.25 48.978,20.37 l 14.277,-14.278 c 0.977,-0.977 2.559,-0.977 3.535,0 0.977,0.976 0.977,2.559 0,3.535 l -14.282,14.283 c 12.021,12.883 19.584,29.977 20.201,48.798 h 20.036 c 1.381,0 2.5,1.119 2.5,2.500005 0,1.381 -1.119,2.5 -2.5,2.5 h -20.036 c -0.617,18.821 -8.18,35.915 -20.201,48.798 l 14.282,14.283 c 0.977,0.976 0.977,2.559 0,3.535 -0.977,0.977 -2.559,0.977 -3.535,0 l -14.277,-14.277 c -12.903,12.119 -30.068,19.75 -48.978,20.37 v 20.036 c 0,1.382 -1.119,2.501 -2.5,2.501 z m 0,-167.995005 c -38.736,0 -70.25,31.514 -70.25,70.250005 0,38.736 31.514,70.25 70.25,70.25 38.736,0 70.25,-31.514 70.25,-70.25 0,-38.736005 -31.513,-70.250005 -70.25,-70.250005 z m 0,131.000005 c -16.609,0 -31.684,-6.7 -42.661,-17.54 -0.104,-0.075 -0.203,-0.16 -0.296,-0.253 -0.094,-0.093 -0.178,-0.192 -0.254,-0.296 -10.84,-10.978 -17.539,-26.051 -17.539,-42.661 0,-16.610005 6.699,-31.683005 17.539,-42.661005 0.076,-0.104 0.16,-0.203 0.254,-0.296 0.094,-0.094 0.192,-0.178 0.296,-0.254 10.978,-10.84 26.052,-17.54 42.661,-17.54 16.612,0 31.686,6.7 42.664,17.542 0.103,0.075 0.2,0.159 0.292,0.251 0.093,0.092 0.176,0.19 0.251,0.292 10.842,10.978 17.543,26.053 17.543,42.665005 0,16.612 -6.701,31.687 -17.543,42.665 -0.075,0.102 -0.158,0.2 -0.251,0.292 -0.092,0.093 -0.189,0.176 -0.292,0.251 -10.978,10.842 -26.051,17.543 -42.664,17.543 z m 2.5,-37.885 v 32.83 c 13.492,-0.598 25.749,-6.012 35.096,-14.563 l -23.203,-23.204 c -3.331,2.679 -7.422,4.451 -11.893,4.937 z m -40.095,18.265 c 9.347,8.551 21.604,13.966 35.096,14.564 v -32.83 c -4.471,-0.485 -8.562,-2.258 -11.893,-4.938 z m 55.524,-26.738 23.202,23.204 c 8.552,-9.347 13.966,-21.604 14.563,-35.096 h -32.829 c -0.485,4.471 -2.257,8.561 -4.936,11.892 z m -73.623,-11.892 c 0.598,13.492 6.012,25.749 14.563,35.095 l 23.203,-23.203 c -2.679,-3.331 -4.451,-7.421 -4.937,-11.892 z m 55.694,-20.500005 c -9.925,0 -18,8.075 -18,18.000005 0,9.925 8.075,18 18,18 9.925,0 18,-8.075 18,-18 0,-9.925005 -8.075,-18.000005 -18,-18.000005 z m 22.866,15.5 h 32.829 c -0.598,-13.492 -6.012,-25.749 -14.563,-35.096 l -23.203,23.203 c 2.679,3.331 4.451,7.421 4.937,11.893 z m -78.56,0 h 32.829 c 0.485,-4.471 2.258,-8.562 4.938,-11.893 l -23.204,-23.203 c -8.551,9.347 -13.965,21.604 -14.563,35.096 z m 18.099,-38.631 23.203,23.203 c 3.331,-2.679 7.422,-4.452 11.893,-4.937 v -32.83 c -13.493,0.597 -25.75,6.012 -35.096,14.564 z m 40.095,18.265 c 4.471,0.485 8.562,2.258 11.893,4.937 l 23.203,-23.203 c -9.347,-8.551 -21.604,-13.966 -35.096,-14.563 z"
   id="path2"
   style="fill:#b4b4b4;fill-opacity:1"
   inkscape:connector-curvature="0" /></svg>