<?xml version="1.0" encoding="UTF-8" standalone="no"?>
<!-- Generator: Adobe Illustrator 17.1.0, SVG Export Plug-In . SVG Version: 6.00 Build 0)  -->

<svg
   xmlns:dc="http://purl.org/dc/elements/1.1/"
   xmlns:cc="http://creativecommons.org/ns#"
   xmlns:rdf="http://www.w3.org/1999/02/22-rdf-syntax-ns#"
   xmlns:svg="http://www.w3.org/2000/svg"
   xmlns="http://www.w3.org/2000/svg"
   xmlns:sodipodi="http://sodipodi.sourceforge.net/DTD/sodipodi-0.dtd"
   xmlns:inkscape="http://www.inkscape.org/namespaces/inkscape"
   version="1.1"
   id="Capa_1"
   x="0px"
   y="0px"
   viewBox="0 0 195.491 195.491"
   style="enable-background:new 0 0 195.491 195.491;"
   xml:space="preserve"
   sodipodi:docname="autopilot-normal.svg"
   inkscape:version="0.92.3 (2405546, 2018-03-11)"><metadata
   id="metadata39"><rdf:RDF><cc:Work
       rdf:about=""><dc:format>image/svg+xml</dc:format><dc:type
         rdf:resource="http://purl.org/dc/dcmitype/StillImage" /><dc:title></dc:title></cc:Work></rdf:RDF></metadata><defs
   id="defs37" /><sodipodi:namedview
   pagecolor="#ffffff"
   bordercolor="#666666"
   borderopacity="1"
   objecttolerance="10"
   gridtolerance="10"
   guidetolerance="10"
   inkscape:pageopacity="1"
   inkscape:pageshadow="2"
   inkscape:window-width="1299"
   inkscape:window-height="713"
   id="namedview35"
   showgrid="false"
   inkscape:zoom="1.2072167"
   inkscape:cx="-33.134068"
   inkscape:cy="97.745498"
   inkscape:window-x="67"
   inkscape:window-y="27"
   inkscape:window-maximized="1"
   inkscape:current-layer="Capa_1" />
<path
   d="m 97.744997,196.31935 c -1.381,0 -2.5,-1.119 -2.5,-2.5 v -20.036 c -18.96,-0.621 -36.163,-8.289 -49.078,-20.464 l -14.371,14.371 c -0.977,0.977 -2.559,0.977 -3.535,0 -0.977,-0.976 -0.977,-2.559 0,-3.535 l 14.383,-14.384 c -11.968,-12.872 -19.492,-29.924 -20.107,-48.697 H 2.4999966 c -1.381,0 -2.4999999569336,-1.118997 -2.4999999569336,-2.499997 0,-1.381 1.1189999569336,-2.5 2.4999999569336,-2.5 H 22.535997 c 0.615,-18.773 8.14,-35.826001 20.107,-48.698001 l -14.382,-14.384 c -0.977,-0.976 -0.977,-2.559 0,-3.535 0.977,-0.977 2.559,-0.977 3.535,0 l 14.371,14.371 c 12.915,-12.176 30.118,-19.843 49.078,-20.464 V 3.3283518 c 0,-1.381 1.119,-2.50000004 2.5,-2.50000004 1.381,0 2.500003,1.11900004 2.500003,2.50000004 V 23.365352 c 18.909,0.62 36.074,8.25 48.978,20.37 l 14.277,-14.278 c 0.977,-0.977 2.559,-0.977 3.535,0 0.977,0.976 0.977,2.559 0,3.535 l -14.282,14.283 c 12.021,12.883 19.584,29.977001 20.201,48.798001 h 20.036 c 1.381,0 2.5,1.119 2.5,2.5 0,1.381 -1.119,2.499997 -2.5,2.499997 h -20.036 c -0.617,18.821 -8.18,35.915 -20.201,48.798 l 14.282,14.283 c 0.977,0.976 0.977,2.559 0,3.535 -0.977,0.977 -2.559,0.977 -3.535,0 l -14.277,-14.277 c -12.903,12.119 -30.068,19.75 -48.978,20.37 v 20.036 c 0,1.382 -1.119003,2.501 -2.500003,2.501 z m 0,-167.994998 c -38.736,0 -70.25,31.514 -70.25,70.250001 0,38.735997 31.514,70.249997 70.25,70.249997 38.736003,0 70.250003,-31.514 70.250003,-70.249997 0,-38.736001 -31.513,-70.250001 -70.250003,-70.250001 z m 0,130.999998 c -16.609,0 -31.684,-6.7 -42.661,-17.54 -0.104,-0.075 -0.203,-0.16 -0.296,-0.253 -0.094,-0.093 -0.178,-0.192 -0.254,-0.296 -10.84,-10.978 -17.539,-26.051 -17.539,-42.660997 0,-16.61 6.699,-31.683001 17.539,-42.661001 0.076,-0.104 0.16,-0.203 0.254,-0.296 0.094,-0.094 0.192,-0.178 0.296,-0.254 10.978,-10.84 26.052,-17.54 42.661,-17.54 16.612003,0 31.686003,6.7 42.664003,17.542 0.103,0.075 0.2,0.159 0.292,0.251 0.093,0.092 0.176,0.19 0.251,0.292 10.842,10.978 17.543,26.053001 17.543,42.665001 0,16.611997 -6.701,31.686997 -17.543,42.664997 -0.075,0.102 -0.158,0.2 -0.251,0.292 -0.092,0.093 -0.189,0.176 -0.292,0.251 -10.978,10.842 -26.051,17.543 -42.664003,17.543 z m 2.500003,-37.885 v 32.83 c 13.492,-0.598 25.749,-6.012 35.096,-14.563 l -23.203,-23.204 c -3.331,2.679 -7.422,4.451 -11.893,4.937 z m -40.095003,18.265 c 9.347,8.551 21.604,13.966 35.096,14.564 v -32.83 c -4.471,-0.485 -8.562,-2.258 -11.893,-4.938 z m 55.524003,-26.738 23.202,23.204 c 8.552,-9.347 13.966,-21.604 14.563,-35.096 H 120.61 c -0.485,4.471 -2.257,8.561 -4.936,11.892 z m -73.623003,-11.892 c 0.598,13.492 6.012,25.749 14.563,35.095 l 23.203,-23.203 c -2.679,-3.331 -4.451,-7.421 -4.937,-11.892 z m 55.694,-20.499997 c -9.925,0 -18,8.075 -18,18 0,9.924997 8.075,17.999997 18,17.999997 9.925003,0 18.000003,-8.075 18.000003,-17.999997 0,-9.925 -8.075,-18 -18.000003,-18 z m 22.866003,15.5 h 32.829 c -0.598,-13.492 -6.012,-25.749001 -14.563,-35.096001 l -23.203,23.203001 c 2.679,3.331 4.451,7.421 4.937,11.893 z m -78.560003,0 h 32.829 c 0.485,-4.471 2.258,-8.562 4.938,-11.893 l -23.204,-23.203001 c -8.551,9.347 -13.965,21.604001 -14.563,35.096001 z m 18.099,-38.631001 23.203,23.203001 c 3.331,-2.679 7.422,-4.452 11.893,-4.937 V 42.879352 c -13.493,0.597 -25.75,6.012 -35.096,14.564 z M 100.245,75.708353 c 4.471,0.485 8.562,2.258 11.893,4.937 l 23.203,-23.203001 c -9.347,-8.551 -21.604,-13.966 -35.096,-14.563 z"
   id="path2"
   inkscape:connector-curvature="0"
   style="fill:#000000;fill-opacity:1" />
<g
   id="g4">
</g>
<g
   id="g6">
</g>
<g
   id="g8">
</g>
<g
   id="g10">
</g>
<g
   id="g12">
</g>
<g
   id="g14">
</g>
<g
   id="g16">
</g>
<g
   id="g18">
</g>
<g
   id="g20">
</g>
<g
   id="g22">
</g>
<g
   id="g24">
</g>
<g
   id="g26">
</g>
<g
   id="g28">
</g>
<g
   id="g30">
</g>
<g
   id="g32">
</g>
</svg>