/* XPM */
static char *twocan_16_icon[] = {
/* columns rows colors chars-per-pixel */
"16 16 37 1 ",
"  c black",
". c #010101010101",
"X c #020202020202",
"o c #040404040404",
"O c #090909090909",
"+ c gray5",
"@ c gray6",
"# c #1E1E00000000",
"$ c #1F1F00000000",
"% c #101010101010",
"& c #151515151515",
"* c #373701010101",
"= c gray16",
"- c #2C2C2C2C2C2C",
"; c #4D4D01010101",
": c #717135351515",
"> c #5E5E43431010",
", c #535353535353",
"< c #7B7B56564242",
"1 c #767662625555",
"2 c #D8D847472121",
"3 c #DFDF58582121",
"4 c #ACAC8E8E0101",
"5 c #D8D88A8A1010",
"6 c #EDED99990E0E",
"7 c #ECEC88881414",
"8 c #F6F6B5B50202",
"9 c #F9F9BDBD0303",
"0 c gray52",
"q c #909090909090",
"w c gray",
"e c #D8D8D8D8D8D8",
"r c gray96",
"t c gray99",
"y c #FEFEFEFEFEFE",
"u c white",
"i c None",
/* pixels */
"iiiiiii894iiiiii",
"iiiiii>6751iiiii",
"iiiiii:32<y0iiii",
"iiiiiiiiitywiiii",
"iiiiiiii-rueiiii",
"iiiiii%&@=q,iiii",
"iiiiiiO+O   iiii",
"iiiii.Xo.  iiiii",
"iiiii      iiiii",
"iiii      iiiiii",
"iiii  *# iiiiiii",
"iiiiii;$iiiiiiii",
"iiiii  iiiiiiiii",
"iiiii  iiiiiiiii",
"iiii   iiiiiiiii",
"iiii   iiiiiiiii"
};
