/* XPM */
static char *twocan_64[] = {
/* columns rows colors chars-per-pixel */
"64 64 253 2 ",
"   c black",
".  c #010101",
"X  c #000102",
"o  c #020202",
"O  c gray1",
"+  c #040404",
"@  c gray2",
"#  c #060606",
"$  c #070707",
"%  c #0C0000",
"&  c #00030B",
"*  c #01040A",
"=  c #00000C",
"-  c gray3",
";  c #090909",
":  c gray4",
">  c #0B0B0B",
",  c #080A0E",
"<  c #0C0C0C",
"1  c gray5",
"2  c #0C0E0E",
"3  c #0E0E0E",
"4  c gray6",
"5  c #180101",
"6  c #100F09",
"7  c #130C0B",
"8  c #000015",
"9  c #000016",
"0  c #0C0F1A",
"q  c #001016",
"w  c #0F1213",
"e  c #071A1B",
"r  c #101010",
"t  c #111010",
"y  c #111111",
"u  c gray7",
"i  c #131313",
"p  c gray8",
"a  c #151515",
"s  c #161616",
"d  c gray9",
"f  c #1B1817",
"g  c #181818",
"h  c #210101",
"j  c #260101",
"k  c #2F0101",
"l  c #3F0202",
"z  c #341800",
"x  c gray17",
"c  c #4A0202",
"v  c #4E0202",
"b  c #4F0202",
"n  c #520202",
"m  c #530202",
"M  c #540202",
"N  c #560202",
"B  c #5B0101",
"V  c #590202",
"C  c #5B0202",
"Z  c #5C0202",
"A  c #5D0202",
"S  c #5F0202",
"D  c #600202",
"F  c #640202",
"G  c #680202",
"H  c #680303",
"J  c #6A0202",
"K  c #6B0202",
"L  c #700202",
"P  c #720202",
"I  c #740202",
"U  c #7B0202",
"Y  c #4E2400",
"T  c #452B02",
"R  c #4C3000",
"E  c #422118",
"W  c #6C3100",
"Q  c #6F3611",
"!  c #613D1D",
"~  c #514815",
"^  c #635201",
"/  c #464646",
"(  c gray29",
")  c gray31",
"_  c #43575C",
"`  c #555555",
"'  c gray34",
"]  c gray39",
"[  c #797979",
"{  c #7E7E7E",
"}  c #800202",
"|  c #960202",
" . c #980202",
".. c #A20202",
"X. c #8D3D00",
"o. c #D32E0A",
"O. c #D5320B",
"+. c #EB3409",
"@. c #944A11",
"#. c #885211",
"$. c #A35C00",
"%. c #B44B32",
"&. c #AA5C36",
"*. c #D6421F",
"=. c #DF491F",
"-. c #DB4D1C",
";. c #DD4E1F",
":. c #CC5B1B",
">. c #DD5E16",
",. c #DC5018",
"<. c #DF521F",
"1. c #E0531F",
"2. c #E0561E",
"3. c #E1591E",
"4. c #E15C1D",
"5. c #E85A19",
"6. c #E16006",
"7. c #E46D04",
"8. c #E16209",
"9. c #E56717",
"0. c #E46817",
"q. c #E76F15",
"w. c #E56518",
"e. c #F2621D",
"r. c #FF6F1D",
"t. c #E17214",
"y. c #E77116",
"u. c #EA7B13",
"i. c #E87C15",
"p. c #EB7E15",
"a. c #E8731D",
"s. c #DA4321",
"d. c #DA4322",
"f. c #DB4422",
"g. c #DC4421",
"h. c #DD4521",
"j. c #DD4621",
"k. c #DC4422",
"l. c #DC4821",
"z. c #DE4B20",
"x. c #DF4F20",
"c. c #FF5328",
"v. c #FF542A",
"b. c #DE6832",
"n. c #E46120",
"m. c #E37429",
"M. c #E7752F",
"N. c #E76A33",
"B. c #E66C32",
"V. c #E46E32",
"C. c #E87632",
"Z. c #F47D31",
"A. c #A06153",
"S. c #BB940A",
"D. c #DF9F05",
"F. c #F19D01",
"G. c #F99A00",
"H. c #F1980F",
"J. c #F19A0F",
"K. c #F29C0F",
"L. c #F39F0E",
"P. c #ED8513",
"I. c #EB8115",
"U. c #ED8614",
"Y. c #EB8813",
"T. c #ED8813",
"R. c #EE9111",
"E. c #EF9311",
"W. c #F59011",
"Q. c #F19810",
"!. c #F6AF00",
"~. c #F6AF03",
"^. c #FFAF00",
"/. c #F3A00E",
"(. c #F4A40C",
"). c #F5A90C",
"_. c #F6AD0C",
"`. c #FFB701",
"'. c #FABD07",
"]. c #F7B00A",
"[. c #F7B20A",
"{. c #F8B409",
"}. c #F8B709",
"|. c #FFB60B",
" X c #FFB00F",
".X c #F9B908",
"XX c #DB8A2E",
"oX c #E9832F",
"OX c #FF9C29",
"+X c #FAC000",
"@X c #FDC100",
"#X c #FBC400",
"$X c #FBC006",
"%X c #FBC306",
"&X c #FDC106",
"*X c #FBC405",
"=X c #FCC505",
"-X c #FCC605",
";X c #FCC705",
":X c #FDCB03",
">X c #FDCD00",
",X c #FDCE00",
"<X c #FECF00",
"1X c #FDCD03",
"2X c #FECD03",
"3X c #FDC904",
"4X c #FCC805",
"5X c #FFCD0A",
"6X c #FFD101",
"7X c #FFD301",
"8X c #FED002",
"9X c #FFD102",
"0X c #FFD202",
"qX c #FFD500",
"wX c #FFD501",
"eX c #FFDD00",
"rX c #FFE406",
"tX c #FFFE02",
"yX c #D1925C",
"uX c #183C9D",
"iX c #2042A8",
"pX c #909090",
"aX c #A09D9C",
"sX c gray63",
"dX c #A4A4A4",
"fX c #B2B2B2",
"gX c #B7B7B7",
"hX c #FFD49B",
"jX c #C8C8C8",
"kX c gray89",
"lX c #E4E4E4",
"zX c #E9E9E9",
"xX c #EAEAEA",
"cX c gray92",
"vX c #ECECEC",
"bX c gray93",
"nX c #EEEEEE",
"mX c #EFEFEF",
"MX c #E9F4F4",
"NX c gray94",
"BX c gray95",
"VX c #F4F4F4",
"CX c #F6F6F6",
"ZX c gray97",
"AX c #F8F8F8",
"SX c #F9F9F9",
"DX c gray98",
"FX c #FBFBFB",
"GX c gray99",
"HX c #FDFDFD",
"JX c #FEFEFE",
"KX c white",
"LX c None",
/* pixels */
"LXLXLXLXLXLXLXLXLXLXLXLXLXLXLXLXLXLXLXLXLXLXLXLXLXLXLXLXLXLXLXLXLX8.LXLXLXLXLXLXLXLXLXLXLXLXLXLXLXLXLXLXLXLXLXLXLXLXLXLXLXLXLXLX",
"LXLXLXLXLXLXLXLXLXLXLXLXLXLXLXLXLXLXLXLXLXLXLXLXLXLXLXLXLXLX6.F.+X,X<X#X~.LXLXLXLXLXLXLXLXLXLXLXLXLXLXLXLXLXLXLXLXLXLXLXLXLXLXLX",
"LXLXLXLXLXLXLXLXLXLXLXLXLXLXLXLXLXLXLXLXLXLXLXLXLXLXLXLX7.>XeXqX0X9X8X9X7XeX^       LXLXLXLXLXLXLXLXLXLXLXLXLXLXLXLXLXLXLXLXLXLX",
"LXLXLXLXLXLXLXLXLXLXLXLXLXLXLXLXLXLXLXLXLXLXLXLXLXLXO.!.eX6X2X3X-X*X%X=X4X:XtXz G.R   LXLXLXLXLXLXLXLXLXLXLXLXLXLXLXLXLXLXLXLXLX",
"LXLXLXLXLXLXLXLXLXLXLXLXLXLXLXLXLXLXLXLXLXLXLXLXLXo.@XwX1X;X$X.X{.].].[.}.'.rXY XXyX$.  LXLXLXLXLXLXLXLXLXLXLXLXLXLXLXLXLXLXLXLX",
"LXLXLXLXLXLXLXLXLXLXLXLXLXLXLXLXLXLXLXLXLXLXLXLX+.D.~ S.&X{._.(.K.H.Q.J./.).5XX.uX= `.    LXLXLXLXLXLXLXLXLXLXLXLXLXLXLXLXLXLXLX",
"LXLXLXLXLXLXLXLXLXLXLXLXLXLXLXLXLXLXLXLXLXLXLXLXe 0 d 9 |.L.R.Y.P.i.p.I.T.E. XW iX8 ^.    LXLXLXLXLXLXLXLXLXLXLXLXLXLXLXLXLXLXLX",
"LXLXLXLXLXLXLXLXLXLXLXLXLXLXLXLXLXLXLXLXLXLXLXE f a p u #.U.t.y.0.>.w.9.q.u.W.T &.A.hXKX    LXLXLXLXLXLXLXLXLXLXLXLXLXLXLXLXLXLX",
"LXLXLXLXLXLXLXLXLXLXLXLXLXLXLXLXLXLXLXLXLXLXLXq p u r , @.a.m.M.V.b.N.B.C.oXOX% KXKXKXJXfX  LXLXLXLXLXLXLXLXLXLXLXLXLXLXLXLXLXLX",
"LXLXLXLXLXLXLXLXLXLXLXLXLXLXLXLXLXLXLXLXLXLXLXw y 4 * ! Z.n.,.-.=.*.g.j.;.e.  X KXKXKXKXKX'   LXLXLXLXLXLXLXLXLXLXLXLXLXLXLXLXLX",
"LXLXLXLXLXLXLXLXLXLXLXLXLXLXLXLXLXLXLXLXLXLXLXt 2 7 :.5.2.1.x.l.k.s.k.f.c.    ` KXKXKXKXCXKX  LXLXLXLXLXLXLXLXLXLXLXLXLXLXLXLXLX",
"LXLXLXLXLXLXLXLXLXLXLXLXLXLXLXLXLXLXLXLXLXLXLX& Q r.4.3.<.x.z.h.k.k.d.v.    x KXKXKXKXKXZXzX) LXLXLXLXLXLXLXLXLXLXLXLXLXLXLXLXLX",
"LXLXLXLXLXLXLXLXLXLXLXLXLXLXLXLXLXLXLXLXLXLXLX6 LXLXLXLXLXLXLXLXLXLX%._ aXKXKXKXKXKXKXKXAXxXdX  LXLXLXLXLXLXLXLXLXLXLXLXLXLXLXLX",
"LXLXLXLXLXLXLXLXLXLXLXLXLXLXLXLXLXLXLXLXLXLXLXLXLXLXLXLXLXLXLXLXLXLXMXBXJXKXKXKXKXKXKXKXAXxXKX  LXLXLXLXLXLXLXLXLXLXLXLXLXLXLXLX",
"LXLXLXLXLXLXLXLXLXLXLXLXLXLXLXLXLXLXLXLXLXLXLXLXLXLXLXLXLXLXLXLXLXLXLXNXHXKXKXKXKXKXKXKXSXcXNXs LXLXLXLXLXLXLXLXLXLXLXLXLXLXLXLX",
"LXLXLXLXLXLXLXLXLXLXLXLXLXLXLXLXLXLXLXLXLXLXLXLXLXLXLXLXLXLXLXLXLXLXLXVXHXKXKXKXKXKXKXKXDXvXkX] LXLXLXLXLXLXLXLXLXLXLXLXLXLXLXLX",
"LXLXLXLXLXLXLXLXLXLXLXLXLXLXLXLXLXLXLXLXLXLXLXLXLXLXLXLXLXLXLXLXLXLX  KXGXKXKXKXKXKXKXKXDXbXlXsXLXLXLXLXLXLXLXLXLXLXLXLXLXLXLXLX",
"LXLXLXLXLXLXLXLXLXLXLXLXLXLXLXLXLXLXLXLXLXLXLXLXLXLXLXLXLXLXLXLXa i 1 pXFXKXKXKXKXKXKXKXFXnXkXxXLXLXLXLXLXLXLXLXLXLXLXLXLXLXLXLX",
"LXLXLXLXLXLXLXLXLXLXLXLXLXLXLXLXLXLXLXLXLXLXLXLXLXLXLXLXLXLXLXg d a i   KXKXKXKXKXKXKXKXGXnXlXCXLXLXLXLXLXLXLXLXLXLXLXLXLXLXLXLX",
"LXLXLXLXLXLXLXLXLXLXLXLXLXLXLXLXLXLXLXLXLXLXLXLXLXLXLXLXLXd g g d s p   { KXKXKXKXKXKXKXHXmXlXgXLXLXLXLXLXLXLXLXLXLXLXLXLXLXLXLX",
"LXLXLXLXLXLXLXLXLXLXLXLXLXLXLXLXLXLXLXLXLXLXLXLXLXLXLXLXd d g g d s s     > KXKXKXKXKXKXHXNXNX/ LXLXLXLXLXLXLXLXLXLXLXLXLXLXLXLX",
"LXLXLXLXLXLXLXLXLXLXLXLXLXLXLXLXLXLXLXLXLXLXLXLXLXLXLXp a s d g d s a o       jXKXKXKXKXHXGX[   LXLXLXLXLXLXLXLXLXLXLXLXLXLXLXLX",
"LXLXLXLXLXLXLXLXLXLXLXLXLXLXLXLXLXLXLXLXLXLXLXLXLXLXr u p a s s s a i <           ( gXvXxXx       LXLXLXLXLXLXLXLXLXLXLXLXLXLXLX",
"LXLXLXLXLXLXLXLXLXLXLXLXLXLXLXLXLXLXLXLXLXLXLXLXLX< 3 y u i p p p i y 4                           LXLXLXLXLXLXLXLXLXLXLXLXLXLXLX",
"LXLXLXLXLXLXLXLXLXLXLXLXLXLXLXLXLXLXLXLXLXLXLXLX- > 1 4 r u u i u y r <                         LXLXLXLXLXLXLXLXLXLXLXLXLXLXLXLX",
"LXLXLXLXLXLXLXLXLXLXLXLXLXLXLXLXLXLXLXLXLXLXLXLX- ; > < 3 4 r r r 3 3 ;                         LXLXLXLXLXLXLXLXLXLXLXLXLXLXLXLX",
"LXLXLXLXLXLXLXLXLXLXLXLXLXLXLXLXLXLXLXLXLXLXLX@ # $ ; : < 1 3 3 1 < > @                         LXLXLXLXLXLXLXLXLXLXLXLXLXLXLXLX",
"LXLXLXLXLXLXLXLXLXLXLXLXLXLXLXLXLXLXLXLXLXLXLXO @ # $ ; ; : > > > : :                         LXLXLXLXLXLXLXLXLXLXLXLXLXLXLXLXLX",
"LXLXLXLXLXLXLXLXLXLXLXLXLXLXLXLXLXLXLXLXLXLXo O O + # # $ - - - - - o                         LXLXLXLXLXLXLXLXLXLXLXLXLXLXLXLXLX",
"LXLXLXLXLXLXLXLXLXLXLXLXLXLXLXLXLXLXLXLXLXLX. o O O + + @ # # # # @                         LXLXLXLXLXLXLXLXLXLXLXLXLXLXLXLXLXLX",
"LXLXLXLXLXLXLXLXLXLXLXLXLXLXLXLXLXLXLXLXLX  . . . O O O + + + + +                           LXLXLXLXLXLXLXLXLXLXLXLXLXLXLXLXLXLX",
"LXLXLXLXLXLXLXLXLXLXLXLXLXLXLXLXLXLXLXLX      . . . . O O O O O o                         LXLXLXLXLXLXLXLXLXLXLXLXLXLXLXLXLXLXLX",
"LXLXLXLXLXLXLXLXLXLXLXLXLXLXLXLXLXLXLXLX        . . . . . . . .                           LXLXLXLXLXLXLXLXLXLXLXLXLXLXLXLXLXLXLX",
"LXLXLXLXLXLXLXLXLXLXLXLXLXLXLXLXLXLXLXLX            . . . . . .                         LXLXLXLXLXLXLXLXLXLXLXLXLXLXLXLXLXLXLXLX",
"LXLXLXLXLXLXLXLXLXLXLXLXLXLXLXLXLXLXLX                    . .                         LXLXLXLXLXLXLXLXLXLXLXLXLXLXLXLXLXLXLXLXLX",
"LXLXLXLXLXLXLXLXLXLXLXLXLXLXLXLXLXLXLX                                              LXLXLXLXLXLXLXLXLXLXLXLXLXLXLXLXLXLXLXLXLXLX",
"LXLXLXLXLXLXLXLXLXLXLXLXLXLXLXLXLXLX                                              LXLXLXLXLXLXLXLXLXLXLXLXLXLXLXLXLXLXLXLXLXLXLX",
"LXLXLXLXLXLXLXLXLXLXLXLXLXLXLXLXLXLX                                            LXLXLXLXLXLXLXLXLXLXLXLXLXLXLXLXLXLXLXLXLXLXLXLX",
"LXLXLXLXLXLXLXLXLXLXLXLXLXLXLXLXLXLX                                          LXLXLXLXLXLXLXLXLXLXLXLXLXLXLXLXLXLXLXLXLXLXLXLXLX",
"LXLXLXLXLXLXLXLXLXLXLXLXLXLXLXLXLX                                          LXLXLXLXLXLXLXLXLXLXLXLXLXLXLXLXLXLXLXLXLXLXLXLXLXLX",
"LXLXLXLXLXLXLXLXLXLXLXLXLXLXLXLXLX                  H                       LXLXLXLXLXLXLXLXLXLXLXLXLXLXLXLXLXLXLXLXLXLXLXLXLXLX",
"LXLXLXLXLXLXLXLXLXLXLXLXLXLXLXLXLX                k c M                 LXLXLXLXLXLXLXLXLXLXLXLXLXLXLXLXLXLXLXLXLXLXLXLXLXLXLXLX",
"LXLXLXLXLXLXLXLXLXLXLXLXLXLXLXLXLX            LX  c m b C l 5 h     LXLXLXLXLXLXLXLXLXLXLXLXLXLXLXLXLXLXLXLXLXLXLXLXLXLXLXLXLXLX",
"LXLXLXLXLXLXLXLXLXLXLXLXLXLXLXLXLX        LXLXLX  v A V N n S     LXLXLXLXLXLXLXLXLXLXLXLXLXLXLXLXLXLXLXLXLXLXLXLXLXLXLXLXLXLXLX",
"LXLXLXLXLXLXLXLXLXLXLXLXLXLXLXLXLX  LXLXLXLXLXLX  Z G F D Z j     LXLXLXLXLXLXLXLXLXLXLXLXLXLXLXLXLXLXLXLXLXLXLXLXLXLXLXLXLXLXLX",
"LXLXLXLXLXLXLXLXLXLXLXLXLXLXLXLXLXLXLXLXLXLXLX    J I L K P     LXLXLXLXLXLXLXLXLXLXLXLXLXLXLXLXLXLXLXLXLXLXLXLXLXLXLXLXLXLXLXLX",
"LXLXLXLXLXLXLXLXLXLXLXLXLXLXLXLXLXLXLXLXLXLXLX    B } U |       LXLXLXLXLXLXLXLXLXLXLXLXLXLXLXLXLXLXLXLXLXLXLXLXLXLXLXLXLXLXLXLX",
"LXLXLXLXLXLXLXLXLXLXLXLXLXLXLXLXLXLXLXLXLXLX        .. .      LXLXLXLXLXLXLXLXLXLXLXLXLXLXLXLXLXLXLXLXLXLXLXLXLXLXLXLXLXLXLXLXLX",
"LXLXLXLXLXLXLXLXLXLXLXLXLXLXLXLXLXLXLXLXLXLX                  LXLXLXLXLXLXLXLXLXLXLXLXLXLXLXLXLXLXLXLXLXLXLXLXLXLXLXLXLXLXLXLXLX",
"LXLXLXLXLXLXLXLXLXLXLXLXLXLXLXLXLXLXLXLXLX                  LXLXLXLXLXLXLXLXLXLXLXLXLXLXLXLXLXLXLXLXLXLXLXLXLXLXLXLXLXLXLXLXLXLX",
"LXLXLXLXLXLXLXLXLXLXLXLXLXLXLXLXLXLXLXLXLX                  LXLXLXLXLXLXLXLXLXLXLXLXLXLXLXLXLXLXLXLXLXLXLXLXLXLXLXLXLXLXLXLXLXLX",
"LXLXLXLXLXLXLXLXLXLXLXLXLXLXLXLXLXLXLXLX                    LXLXLXLXLXLXLXLXLXLXLXLXLXLXLXLXLXLXLXLXLXLXLXLXLXLXLXLXLXLXLXLXLXLX",
"LXLXLXLXLXLXLXLXLXLXLXLXLXLXLXLXLXLXLX                    LXLXLXLXLXLXLXLXLXLXLXLXLXLXLXLXLXLXLXLXLXLXLXLXLXLXLXLXLXLXLXLXLXLXLX",
"LXLXLXLXLXLXLXLXLXLXLXLXLXLXLXLXLXLXLX                    LXLXLXLXLXLXLXLXLXLXLXLXLXLXLXLXLXLXLXLXLXLXLXLXLXLXLXLXLXLXLXLXLXLXLX",
"LXLXLXLXLXLXLXLXLXLXLXLXLXLXLXLXLXLX                      LXLXLXLXLXLXLXLXLXLXLXLXLXLXLXLXLXLXLXLXLXLXLXLXLXLXLXLXLXLXLXLXLXLXLX",
"LXLXLXLXLXLXLXLXLXLXLXLXLXLXLXLXLXLX                      LXLXLXLXLXLXLXLXLXLXLXLXLXLXLXLXLXLXLXLXLXLXLXLXLXLXLXLXLXLXLXLXLXLXLX",
"LXLXLXLXLXLXLXLXLXLXLXLXLXLXLXLXLX                        LXLXLXLXLXLXLXLXLXLXLXLXLXLXLXLXLXLXLXLXLXLXLXLXLXLXLXLXLXLXLXLXLXLXLX",
"LXLXLXLXLXLXLXLXLXLXLXLXLXLXLXLXLX                      LXLXLXLXLXLXLXLXLXLXLXLXLXLXLXLXLXLXLXLXLXLXLXLXLXLXLXLXLXLXLXLXLXLXLXLX",
"LXLXLXLXLXLXLXLXLXLXLXLXLXLXLXLXLX                      LXLXLXLXLXLXLXLXLXLXLXLXLXLXLXLXLXLXLXLXLXLXLXLXLXLXLXLXLXLXLXLXLXLXLXLX",
"LXLXLXLXLXLXLXLXLXLXLXLXLXLXLXLX                        LXLXLXLXLXLXLXLXLXLXLXLXLXLXLXLXLXLXLXLXLXLXLXLXLXLXLXLXLXLXLXLXLXLXLXLX",
"LXLXLXLXLXLXLXLXLXLXLXLXLXLXLXLX                        LXLXLXLXLXLXLXLXLXLXLXLXLXLXLXLXLXLXLXLXLXLXLXLXLXLXLXLXLXLXLXLXLXLXLXLX",
"LXLXLXLXLXLXLXLXLXLXLXLXLXLXLXLX                      LXLXLXLXLXLXLXLXLXLXLXLXLXLXLXLXLXLXLXLXLXLXLXLXLXLXLXLXLXLXLXLXLXLXLXLXLX",
"LXLXLXLXLXLXLXLXLXLXLXLXLXLXLXLX                      LXLXLXLXLXLXLXLXLXLXLXLXLXLXLXLXLXLXLXLXLXLXLXLXLXLXLXLXLXLXLXLXLXLXLXLXLX",
"LXLXLXLXLXLXLXLXLXLXLXLXLXLXLXLXLX          LXLXLXLXLXLXLXLXLXLXLXLXLXLXLXLXLXLXLXLXLXLXLXLXLXLXLXLXLXLXLXLXLXLXLXLXLXLXLXLXLXLX"
};
