/* XPM */
static char *twocan_32[] = {
/* columns rows colors chars-per-pixel */
"32 32 108 2 ",
"   c black",
".  c #010101",
"X  c #020000",
"o  c #030000",
"O  c #020202",
"+  c gray1",
"@  c #040404",
"#  c gray2",
"$  c #070707",
"%  c #0B0101",
"&  c #050809",
"*  c gray3",
"=  c #090909",
"-  c gray4",
";  c #0C0C0C",
":  c gray5",
">  c #0F0D0F",
",  c #0E0E0E",
"<  c #110101",
"1  c #170101",
"2  c #1B0101",
"3  c #1F0101",
"4  c #010C14",
"5  c #120F11",
"6  c #111111",
"7  c gray7",
"8  c gray8",
"9  c #151515",
"0  c #161616",
"q  c #141B16",
"w  c #181818",
"e  c #191919",
"r  c gray10",
"t  c #220101",
"y  c #2A0202",
"u  c #2F0202",
"i  c #420101",
"p  c #460202",
"a  c #5B0202",
"s  c #6B0202",
"d  c #720202",
"f  c #7C0202",
"g  c #691703",
"h  c #462F00",
"j  c #4F3205",
"k  c #4A2712",
"l  c #492716",
"z  c #7E4813",
"x  c #7D6E00",
"c  c #3F4448",
"v  c #414141",
"b  c gray27",
"n  c #5D4858",
"m  c #5A5A5A",
"M  c #6C6C6C",
"N  c #727272",
"B  c #DF3C1A",
"V  c #B9511A",
"C  c #BB5E1F",
"Z  c #B57C0F",
"A  c #E97C17",
"S  c #E97A19",
"D  c #DE4A20",
"F  c #E64624",
"G  c #E25527",
"H  c #E75A21",
"J  c #E05825",
"K  c #E86422",
"L  c #EB6922",
"P  c #8B6744",
"I  c #A17C4E",
"U  c #D39808",
"Y  c #EA8405",
"T  c #F09F04",
"R  c #E28E12",
"E  c #F38E12",
"W  c #F28B16",
"Q  c #D8A907",
"!  c #F6AD03",
"~  c #F7AF0B",
"^  c #F6AC0C",
"/  c #FFBB09",
"(  c #FFCD02",
")  c #FDC008",
"_  c #FFD502",
"`  c #FED602",
"'  c #FFD602",
"]  c #FFD605",
"[  c #C98C7E",
"{  c #848585",
"}  c #868686",
"|  c gray62",
" . c #A7A7A7",
".. c #ABADAE",
"X. c #BCBCBC",
"o. c #D5C7B9",
"O. c #C6C6C6",
"+. c gray82",
"@. c #DFDFDF",
"#. c #EDEFEF",
"$. c #EFFEFE",
"%. c #F7FAFD",
"&. c #F9F9F9",
"*. c gray98",
"=. c #FFFFFB",
"-. c gray99",
";. c white",
":. c None",
/* pixels */
":.:.:.:.:.:.:.:.:.:.:.:.:.:.:.:.Y T :.:.:.:.:.:.:.:.:.:.:.:.:.:.",
":.:.:.:.:.:.:.:.:.:.:.:.:.:.! ( _ ' ` x h :.:.:.:.:.:.:.:.:.:.:.",
":.:.:.:.:.:.:.:.:.:.:.:.:.U ] ) ~ ^ / Q P j :.:.:.:.:.:.:.:.:.:.",
":.:.:.:.:.:.:.:.:.:.:.:.l q Z E A S W R n I & :.:.:.:.:.:.:.:.:.",
":.:.:.:.:.:.:.:.:.:.:.:.4 5 C L J G K z o.=.{ :.:.:.:.:.:.:.:.:.",
":.:.:.:.:.:.:.:.:.:.:.> k V H D F B g c %.;.&.b :.:.:.:.:.:.:.:.",
":.:.:.:.:.:.:.:.:.:.:.:.:.:.:.:.:.[ ..#.;.;.;.} :.:.:.:.:.:.:.:.",
":.:.:.:.:.:.:.:.:.:.:.:.:.:.:.:.:.$.;.;.;.;.-.X.:.:.:.:.:.:.:.:.",
":.:.:.:.:.:.:.:.:.:.:.:.:.:.:.:.:.m ;.;.;.;.*.+.:.:.:.:.:.:.:.:.",
":.:.:.:.:.:.:.:.:.:.:.:.:.:.:.w 9 8 O.;.;.;.-.@.:.:.:.:.:.:.:.:.",
":.:.:.:.:.:.:.:.:.:.:.:.:.:.0 r e * r  .;.;.;.| :.:.:.:.:.:.:.:.",
":.:.:.:.:.:.:.:.:.:.:.:.:.6 0 0 0 6     v N M ; :.:.:.:.:.:.:.:.",
":.:.:.:.:.:.:.:.:.:.:.:.- , 6 7 7 , .           :.:.:.:.:.:.:.:.",
":.:.:.:.:.:.:.:.:.:.:.:.$ = ; : : =             :.:.:.:.:.:.:.:.",
":.:.:.:.:.:.:.:.:.:.:.O @ # $ * * O           :.:.:.:.:.:.:.:.:.",
":.:.:.:.:.:.:.:.:.:.:.. O + @ @ +             :.:.:.:.:.:.:.:.:.",
":.:.:.:.:.:.:.:.:.:.    . . . .             :.:.:.:.:.:.:.:.:.:.",
":.:.:.:.:.:.:.:.:.:.        . .           :.:.:.:.:.:.:.:.:.:.:.",
":.:.:.:.:.:.:.:.:.                        :.:.:.:.:.:.:.:.:.:.:.",
":.:.:.:.:.:.:.:.:.                      :.:.:.:.:.:.:.:.:.:.:.:.",
":.:.:.:.:.:.:.:.:.      % u o         :.:.:.:.:.:.:.:.:.:.:.:.:.",
":.:.:.:.:.:.:.:.      :.2 a p y X :.:.:.:.:.:.:.:.:.:.:.:.:.:.:.",
":.:.:.:.:.:.:.:.:.:.:.:.3 d s t :.:.:.:.:.:.:.:.:.:.:.:.:.:.:.:.",
":.:.:.:.:.:.:.:.:.:.:.:.1 f i   :.:.:.:.:.:.:.:.:.:.:.:.:.:.:.:.",
":.:.:.:.:.:.:.:.:.:.:.    <   :.:.:.:.:.:.:.:.:.:.:.:.:.:.:.:.:.",
":.:.:.:.:.:.:.:.:.:.          :.:.:.:.:.:.:.:.:.:.:.:.:.:.:.:.:.",
":.:.:.:.:.:.:.:.:.:.          :.:.:.:.:.:.:.:.:.:.:.:.:.:.:.:.:.",
":.:.:.:.:.:.:.:.:.            :.:.:.:.:.:.:.:.:.:.:.:.:.:.:.:.:.",
":.:.:.:.:.:.:.:.:.          :.:.:.:.:.:.:.:.:.:.:.:.:.:.:.:.:.:.",
":.:.:.:.:.:.:.:.            :.:.:.:.:.:.:.:.:.:.:.:.:.:.:.:.:.:.",
":.:.:.:.:.:.:.:.            :.:.:.:.:.:.:.:.:.:.:.:.:.:.:.:.:.:.",
":.:.:.:.:.:.:.:.          :.:.:.:.:.:.:.:.:.:.:.:.:.:.:.:.:.:.:."
};
